<svg xmlns="http://www.w3.org/2000/svg" width="14.848" height="14.848" viewBox="0 0 14.848 14.848">
  <path id="Trazado_3742" data-name="Trazado 3742" d="M648.93,213.848h-7.111a.82.82,0,0,1-.819-.82V199.819a.82.82,0,0,1,.819-.819h13.21a.82.82,0,0,1,.819.819v13.209a.82.82,0,0,1-.819.82h-3.784V208.1h1.929l.289-2.24h-2.219v-1.431c0-.648.18-1.09,1.11-1.09h1.186v-2a15.868,15.868,0,0,0-1.729-.088,2.7,2.7,0,0,0-2.882,2.961v1.653H647v2.24h1.934Z" transform="translate(-641 -199)" fill="#0052b4"/>
</svg>
