<svg xmlns="http://www.w3.org/2000/svg" width="11.895" height="11.895" viewBox="0 0 11.895 11.895">
  <path id="Trazado_3743" data-name="Trazado 3743" d="M551.756,143.122l-1.682-.192a1.318,1.318,0,0,0-1.086.377l-1.218,1.218a9.963,9.963,0,0,1-4.364-4.364l1.225-1.225a1.318,1.318,0,0,0,.377-1.086l-.192-1.669a1.325,1.325,0,0,0-1.318-1.172h-1.146a1.314,1.314,0,0,0-1.324,1.371A11.252,11.252,0,0,0,551.551,146.9a1.314,1.314,0,0,0,1.371-1.324v-1.146A1.312,1.312,0,0,0,551.756,143.122Z" transform="translate(-541.026 -135.01)" fill="#0052b4" fill-rule="evenodd"/>
</svg>
