<svg xmlns="http://www.w3.org/2000/svg" width="14.848" height="14.848" viewBox="0 0 14.848 14.848">
  <path id="Trazado_3740" data-name="Trazado 3740" d="M840.424,199c-2.016,0-2.269.008-3.061.045a5.436,5.436,0,0,0-1.8.346,3.795,3.795,0,0,0-2.171,2.171,5.435,5.435,0,0,0-.346,1.8c-.036.792-.045,1.045-.045,3.061s.008,2.269.045,3.061a5.435,5.435,0,0,0,.346,1.8,3.8,3.8,0,0,0,2.171,2.172,5.46,5.46,0,0,0,1.8.345c.792.036,1.045.045,3.061.045s2.269-.008,3.061-.045a5.46,5.46,0,0,0,1.8-.345,3.8,3.8,0,0,0,2.172-2.172,5.463,5.463,0,0,0,.345-1.8c.036-.792.045-1.045.045-3.061s-.008-2.269-.045-3.061a5.463,5.463,0,0,0-.345-1.8,3.8,3.8,0,0,0-2.172-2.171,5.436,5.436,0,0,0-1.8-.346C842.693,199.008,842.44,199,840.424,199Zm0,1.338c1.982,0,2.217.007,3,.043a4.111,4.111,0,0,1,1.378.256,2.455,2.455,0,0,1,1.409,1.409,4.112,4.112,0,0,1,.256,1.378c.036.783.043,1.018.043,3s-.007,2.217-.043,3a4.112,4.112,0,0,1-.256,1.378,2.455,2.455,0,0,1-1.409,1.409,4.112,4.112,0,0,1-1.378.256c-.783.035-1.018.043-3,.043s-2.217-.007-3-.043a4.113,4.113,0,0,1-1.378-.256,2.455,2.455,0,0,1-1.409-1.409,4.112,4.112,0,0,1-.256-1.378c-.036-.783-.043-1.018-.043-3s.007-2.217.043-3a4.112,4.112,0,0,1,.256-1.378,2.455,2.455,0,0,1,1.409-1.409,4.113,4.113,0,0,1,1.378-.256C838.207,200.345,838.442,200.338,840.424,200.338Zm-3.812,6.086a3.813,3.813,0,1,1,3.813,3.813A3.813,3.813,0,0,1,836.611,206.424Zm3.813,2.475a2.475,2.475,0,1,1,2.475-2.475A2.475,2.475,0,0,1,840.424,208.9Zm3.963-5.546a.891.891,0,1,0-.891-.891A.891.891,0,0,0,844.387,203.352Z" transform="translate(-833 -199)" fill="#0052b4" fill-rule="evenodd"/>
</svg>
