<svg xmlns="http://www.w3.org/2000/svg" width="14.848" height="13.198" viewBox="0 0 14.848 13.198">
  <path id="Trazado_3741" data-name="Trazado 3741" d="M738.748,203.111h-.021A1.585,1.585,0,0,1,737,201.557a1.77,1.77,0,1,1,1.748,1.554Zm13.1,10.087h-3.281v-4.64c0-1.214-.514-2.043-1.642-2.043a1.652,1.652,0,0,0-1.567,1.1,1.7,1.7,0,0,0-.071.636h0c0,.032,0,.064,0,.1V213.2h-3.252s.042-8.219,0-8.966h3.252v1.407a2.983,2.983,0,0,1,2.889-1.494c2.056,0,3.672,1.29,3.672,4.067Zm-11.58-8.966h-2.894V213.2h2.894Z" transform="translate(-737 -200)" fill="#0052b4" fill-rule="evenodd"/>
</svg>
