<svg xmlns="http://www.w3.org/2000/svg" width="15.321" height="15" viewBox="0 0 15.321 15">
  <g id="Grupo_4249" data-name="Grupo 4249" transform="translate(0.162 0.075)">
    <g id="Grupo_4050" data-name="Grupo 4050" transform="translate(0 0)">
      <path id="Trazado_3319" data-name="Trazado 3319" d="M793.7,785.916l-5.028-7.063-.568-.8L784.5,773l-.3-.419h-4.419l1.078,1.515,4.782,6.719.568.8,3.842,5.4.3.418h4.42Zm-2.816.548-3.992-5.608-.568-.8-4.632-6.508h1.993l3.746,5.263.568.8,4.878,6.853Z" transform="translate(-779.787 -772.583)" fill="#0052b4"/>
      <path id="Trazado_3320" data-name="Trazado 3320" d="M784.108,1062.621l.431.66-.511.626-3.922,4.806h-.967l4.458-5.465Z" transform="translate(-778.248 -1054.287)" fill="#0052b4" stroke="#007aff" stroke-width="1"/>
      <path id="Trazado_3321" data-name="Trazado 3321" d="M1071.774,772.583l-4.341,5.271-.525.637-.443-.671.525-.638,2.941-3.572.85-1.027Z" transform="translate(-1057.675 -772.158)" fill="#0052b4" stroke="#007aff" stroke-width="1"/>
    </g>
  </g>
</svg>
